<svg xmlns="http://www.w3.org/2000/svg" width="26.114" height="26.62" viewBox="0 0 26.114 26.62"><defs><style>.a{fill:#e62026;}</style></defs><g transform="translate(-4.174 0)"><g transform="translate(4.174)"><g transform="translate(9.411)"><path class="a" d="M164.552.71A3.752,3.752,0,1,1,160.8,4.464,3.756,3.756,0,0,1,164.552.71m0-.71a4.463,4.463,0,1,0,4.462,4.464A4.464,4.464,0,0,0,164.552,0Z" transform="translate(-160.09)"/></g><g transform="translate(0 2.118)"><path class="a" d="M5.991,35.8a1.29,1.29,0,0,1,1.085.75,16.734,16.734,0,0,0,6.936,6.423,14.156,14.156,0,0,0,4.974,1.2,10.725,10.725,0,0,1,2.8.511c3.3,1.123,4.789,3.5,7.634,9.056a1.567,1.567,0,0,1-.416,1.9,1.512,1.512,0,0,1-.709.2,1.11,1.11,0,0,1-1-.641c-.143-.427-1.589-4.538-4.8-6.452a.711.711,0,0,0-1.074.616l.01,1.3a.71.71,0,0,0,.161.445.713.713,0,0,0-.139.124,2.46,2.46,0,0,1-.668.453.707.707,0,0,0-.32.307.708.708,0,0,0-.47.024l-.785.322a.71.71,0,0,0-.354.316.71.71,0,0,0-.474.023l-.354.145a.714.714,0,0,0-.435-.73l-.74-.307-2.1-.872a2.512,2.512,0,0,1-.812-.517.7.7,0,0,0-.236-.181.707.707,0,0,0,.1-.375l-.016-2.43a.712.712,0,0,0-.334-.6c-.28-.175-.578-.351-.894-.537A15.61,15.61,0,0,1,5.1,38.013L5.1,38c-.362-.825-.215-1.8.154-1.993a1.633,1.633,0,0,1,.74-.206M22.308,55.134v.12h0a.7.7,0,0,0-.072-.033c.025-.028.049-.057.073-.086m-2.957,1.526a.7.7,0,0,0,0,.142l-.172-.071.172-.071M5.991,35.09a2.329,2.329,0,0,0-1.068.287c-.8.413-.959,1.815-.479,2.909,2.5,6.059,6.341,7.7,8.626,9.125l.016,2.43a1.053,1.053,0,0,0-.735,1.024V53.3a1.942,1.942,0,0,0,.506,1.27l-.34.139a1.045,1.045,0,0,0-.649.968v2.865a1.049,1.049,0,0,0,1.047,1.048,1.038,1.038,0,0,0,.4-.08L18.686,57.3l2.006.832a2.253,2.253,0,0,0,.849.18,1.418,1.418,0,0,0,1.476-1.456V51.7a1.055,1.055,0,0,0-.683-1,1.136,1.136,0,0,0-.2-.049l-.01-1.3c3.13,1.863,4.5,6.091,4.5,6.091a1.817,1.817,0,0,0,1.67,1.1,2.211,2.211,0,0,0,1.044-.28,2.249,2.249,0,0,0,.715-2.854c-2.807-5.482-4.4-8.168-8.037-9.405-2.723-.927-3.968-.086-7.725-1.689a16.059,16.059,0,0,1-6.609-6.142,1.973,1.973,0,0,0-1.69-1.089ZM13.92,54.135A1.105,1.105,0,0,1,13.4,53.3V50.865a3.077,3.077,0,0,0,1.071.7l2.1.872.74.307-3.392,1.39Zm6.335-.3.828-.348v-1.17a3.011,3.011,0,0,0,.889-.618v2.436a1.307,1.307,0,0,1-.878,1.036l-8.179,3.368V55.677l.89-.365v1.236l.828-.348V54.974l.785-.322V56.5l.828-.348V54.313l.785-.322v1.2l.828-.348V53.651l.785-.322v1.814l.828-.348V52.99l.785-.322v1.17Zm1.287,3.425a1.21,1.21,0,0,1-.449-.1l-1.036-.429,1.434-.591a2.748,2.748,0,0,0,.48-.262v.974a.38.38,0,0,1-.429.409Z" transform="translate(-4.174 -35.09)"/></g></g></g></svg>