<svg xmlns="http://www.w3.org/2000/svg" width="31.008" height="29.095" viewBox="0 0 31.008 29.095"><defs><style>.a{fill:#212121;}</style></defs><g transform="translate(0.001 -13.596)"><g transform="translate(-0.001 13.596)"><g transform="translate(3.942 3.788)"><path class="a" d="M61.4,78.163a5.354,5.354,0,1,1,.8-.059h0A5.475,5.475,0,0,1,61.4,78.163Zm.738-.465Zm-.716-9.4a4.585,4.585,0,0,0-.676.051,4.494,4.494,0,1,0,.676-.051Z" transform="translate(-56.066 -67.475)"/></g><g transform="translate(25.838 3.684)"><path class="a" d="M369.811,72.17a2.326,2.326,0,0,1-2.2-3.074l.521-1.53a2.329,2.329,0,0,1,2.947-1.453h0a2.325,2.325,0,0,1,1.452,2.95l-.52,1.531a2.3,2.3,0,0,1-1.173,1.337A2.334,2.334,0,0,1,369.811,72.17Zm.522-5.358a1.508,1.508,0,0,0-1.425,1.02l-.521,1.53a1.5,1.5,0,0,0,2.088,1.832,1.489,1.489,0,0,0,.758-.863l.52-1.531a1.5,1.5,0,0,0-1.419-1.986Z" transform="translate(-367.486 -65.991)"/></g><g transform="translate(16.096)"><path class="a" d="M231.257,19.775a2.331,2.331,0,0,1-.752-.125h0a2.326,2.326,0,0,1-1.451-2.949l.521-1.53a2.323,2.323,0,0,1,4.283-.278,2.3,2.3,0,0,1,.114,1.775l-.52,1.531a2.327,2.327,0,0,1-2.2,1.577Zm-.487-.9a1.5,1.5,0,0,0,1.905-.937l.52-1.531a1.5,1.5,0,1,0-2.843-.968l-.521,1.53a1.505,1.505,0,0,0,.938,1.907Z" transform="translate(-228.931 -13.596)"/></g><g transform="translate(0 2.259)"><path class="a" d="M18.228,72.558H6.729a.411.411,0,1,1,0-.821H17.78l-.746-8.565a.411.411,0,0,1,.171-.37,17.746,17.746,0,0,0,3.207-3.283A26.2,26.2,0,0,0,25.2,49.171c0-.007,0-.014.006-.021.465-1.649-.289-2.159-.9-2.4a1.881,1.881,0,0,0-1.436-.108,1.48,1.48,0,0,0-.73.883,24.24,24.24,0,0,1-2.775,5.565,17.886,17.886,0,0,1-3.732,4.128,11.844,11.844,0,0,1-5.565,2.488C2.367,60.888.807,62.182.82,67.391l.264,4.347H4.851l-.125-3.385a.411.411,0,1,1,.821-.03l.141,3.811a.411.411,0,0,1-.411.426H.7a.411.411,0,0,1-.41-.386L0,67.429c0-.008,0-.016,0-.025-.009-3.087.593-4.838,2.078-6.045,1.59-1.292,4.191-1.9,7.872-2.466,4.185-.643,7.062-3.76,8.74-6.261a23.765,23.765,0,0,0,2.678-5.368c0-.008,0-.015.008-.022a2.264,2.264,0,0,1,1.17-1.352,2.651,2.651,0,0,1,2.07.1c.958.378,1.976,1.271,1.388,3.374a27.021,27.021,0,0,1-4.963,10.691,19.35,19.35,0,0,1-3.166,3.274l.765,8.786a.411.411,0,0,1-.409.446Z" transform="translate(0.001 -45.722)"/></g></g></g></svg>